<svg xmlns="http://www.w3.org/2000/svg" width="1200" height="320" viewBox="0 0 1200 320" role="img" aria-label="Refik Can Bozkurt, Backend Engineer at Google, Berlin">
<defs>
<linearGradient id="f" x1="0" x2="1"><stop offset="0.5" stop-color="#ffffff"/><stop offset="0.72" stop-color="#ffffff" stop-opacity="0"/></linearGradient>
<style>
.s{font-family:-apple-system,BlinkMacSystemFont,"Segoe UI","Helvetica Neue",Helvetica,Arial,sans-serif}
.m{font-family:ui-monospace,SFMono-Regular,"SF Mono",Menlo,Consolas,"Liberation Mono",monospace}
.p{animation:p 3s ease-in-out infinite}@keyframes p{0%,100%{opacity:1}50%{opacity:.35}}
.c{animation:c 1.1s steps(1) infinite}@keyframes c{50%{opacity:0}}
</style>
</defs>
<rect width="1200" height="320" rx="14" fill="#ffffff"/>
<rect x="0.5" y="0.5" width="1199" height="319" rx="14" fill="none" stroke="#d1d9e0"/>
<rect x="700" y="97" width="14" height="14" rx="3" fill="#eff2f5"/><rect x="700" y="115" width="14" height="14" rx="3" fill="#eff2f5"/><rect x="700" y="133" width="14" height="14" rx="3" fill="#aceebb"/><rect x="700" y="151" width="14" height="14" rx="3" fill="#eff2f5"/><rect x="700" y="169" width="14" height="14" rx="3" fill="#aceebb"/><rect x="700" y="187" width="14" height="14" rx="3" fill="#eff2f5"/><rect x="700" y="205" width="14" height="14" rx="3" fill="#eff2f5"/><rect x="718" y="97" width="14" height="14" rx="3" fill="#aceebb"/><rect x="718" y="115" width="14" height="14" rx="3" fill="#eff2f5"/><rect x="718" y="133" width="14" height="14" rx="3" fill="#eff2f5"/><rect x="718" y="151" width="14" height="14" rx="3" fill="#eff2f5"/><rect x="718" y="169" width="14" height="14" rx="3" fill="#eff2f5"/><rect x="718" y="187" width="14" height="14" rx="3" fill="#eff2f5"/><rect x="718" y="205" width="14" height="14" rx="3" fill="#4ac26b"/><rect x="736" y="97" width="14" height="14" rx="3" fill="#eff2f5"/><rect x="736" y="115" width="14" height="14" rx="3" fill="#eff2f5"/><rect x="736" y="133" width="14" height="14" rx="3" fill="#aceebb"/><rect x="736" y="151" width="14" height="14" rx="3" fill="#4ac26b"/><rect x="736" y="169" width="14" height="14" rx="3" fill="#aceebb"/><rect x="736" y="187" width="14" height="14" rx="3" fill="#eff2f5"/><rect x="736" y="205" width="14" height="14" rx="3" fill="#2da44e"/><rect x="754" y="97" width="14" height="14" rx="3" fill="#eff2f5"/><rect x="754" y="115" width="14" height="14" rx="3" fill="#4ac26b"/><rect x="754" y="133" width="14" height="14" rx="3" fill="#eff2f5"/><rect x="754" y="151" width="14" height="14" rx="3" fill="#eff2f5"/><rect x="754" y="169" width="14" height="14" rx="3" fill="#eff2f5"/><rect x="754" y="187" width="14" height="14" rx="3" fill="#eff2f5"/><rect x="754" y="205" width="14" height="14" rx="3" fill="#4ac26b"/><rect x="772" y="97" width="14" height="14" rx="3" fill="#eff2f5"/><rect x="772" y="115" width="14" height="14" rx="3" fill="#aceebb"/><rect x="772" y="133" width="14" height="14" rx="3" fill="#4ac26b"/><rect x="772" y="151" width="14" height="14" rx="3" fill="#aceebb"/><rect x="772" y="169" width="14" height="14" rx="3" fill="#aceebb"/><rect x="772" y="187" width="14" height="14" rx="3" fill="#eff2f5"/><rect x="772" y="205" width="14" height="14" rx="3" fill="#eff2f5"/><rect x="790" y="97" width="14" height="14" rx="3" fill="#eff2f5"/><rect x="790" y="115" width="14" height="14" rx="3" fill="#4ac26b"/><rect x="790" y="133" width="14" height="14" rx="3" fill="#aceebb"/><rect x="790" y="151" width="14" height="14" rx="3" fill="#aceebb"/><rect x="790" y="169" width="14" height="14" rx="3" fill="#4ac26b"/><rect x="790" y="187" width="14" height="14" rx="3" fill="#aceebb"/><rect x="790" y="205" width="14" height="14" rx="3" fill="#eff2f5"/><rect x="808" y="97" width="14" height="14" rx="3" fill="#4ac26b"/><rect x="808" y="115" width="14" height="14" rx="3" fill="#4ac26b"/><rect x="808" y="133" width="14" height="14" rx="3" fill="#eff2f5"/><rect x="808" y="151" width="14" height="14" rx="3" fill="#4ac26b"/><rect x="808" y="169" width="14" height="14" rx="3" fill="#aceebb"/><rect x="808" y="187" width="14" height="14" rx="3" fill="#2da44e"/><rect x="808" y="205" width="14" height="14" rx="3" fill="#4ac26b"/><rect x="826" y="97" width="14" height="14" rx="3" fill="#aceebb"/><rect x="826" y="115" width="14" height="14" rx="3" fill="#2da44e"/><rect x="826" y="133" width="14" height="14" rx="3" fill="#eff2f5"/><rect x="826" y="151" width="14" height="14" rx="3" fill="#aceebb"/><rect x="826" y="169" width="14" height="14" rx="3" fill="#4ac26b"/><rect x="826" y="187" width="14" height="14" rx="3" fill="#eff2f5"/><rect x="826" y="205" width="14" height="14" rx="3" fill="#aceebb"/><rect x="844" y="97" width="14" height="14" rx="3" fill="#eff2f5"/><rect x="844" y="115" width="14" height="14" rx="3" fill="#4ac26b"/><rect x="844" y="133" width="14" height="14" rx="3" fill="#2da44e"/><rect x="844" y="151" width="14" height="14" rx="3" fill="#4ac26b"/><rect x="844" y="169" width="14" height="14" rx="3" fill="#2da44e"/><rect x="844" y="187" width="14" height="14" rx="3" fill="#aceebb"/><rect x="844" y="205" width="14" height="14" rx="3" fill="#4ac26b"/><rect x="862" y="97" width="14" height="14" rx="3" fill="#4ac26b"/><rect x="862" y="115" width="14" height="14" rx="3" fill="#4ac26b"/><rect x="862" y="133" width="14" height="14" rx="3" fill="#4ac26b"/><rect x="862" y="151" width="14" height="14" rx="3" fill="#2da44e"/><rect x="862" y="169" width="14" height="14" rx="3" fill="#2da44e"/><rect x="862" y="187" width="14" height="14" rx="3" fill="#4ac26b"/><rect x="862" y="205" width="14" height="14" rx="3" fill="#4ac26b"/><rect x="880" y="97" width="14" height="14" rx="3" fill="#eff2f5"/><rect x="880" y="115" width="14" height="14" rx="3" fill="#2da44e"/><rect x="880" y="133" width="14" height="14" rx="3" fill="#4ac26b"/><rect x="880" y="151" width="14" height="14" rx="3" fill="#116329"/><rect x="880" y="169" width="14" height="14" rx="3" fill="#aceebb"/><rect x="880" y="187" width="14" height="14" rx="3" fill="#4ac26b"/><rect x="880" y="205" width="14" height="14" rx="3" fill="#2da44e"/><rect x="898" y="97" width="14" height="14" rx="3" fill="#eff2f5"/><rect x="898" y="115" width="14" height="14" rx="3" fill="#4ac26b"/><rect x="898" y="133" width="14" height="14" rx="3" fill="#aceebb"/><rect x="898" y="151" width="14" height="14" rx="3" fill="#aceebb"/><rect x="898" y="169" width="14" height="14" rx="3" fill="#eff2f5"/><rect x="898" y="187" width="14" height="14" rx="3" fill="#2da44e"/><rect x="898" y="205" width="14" height="14" rx="3" fill="#aceebb"/><rect x="916" y="97" width="14" height="14" rx="3" fill="#aceebb"/><rect x="916" y="115" width="14" height="14" rx="3" fill="#4ac26b"/><rect class="p" style="animation-delay:1.3s" x="916" y="133" width="14" height="14" rx="3" fill="#116329"/><rect x="916" y="151" width="14" height="14" rx="3" fill="#4ac26b"/><rect x="916" y="169" width="14" height="14" rx="3" fill="#116329"/><rect x="916" y="187" width="14" height="14" rx="3" fill="#116329"/><rect x="916" y="205" width="14" height="14" rx="3" fill="#4ac26b"/><rect x="934" y="97" width="14" height="14" rx="3" fill="#4ac26b"/><rect x="934" y="115" width="14" height="14" rx="3" fill="#116329"/><rect x="934" y="133" width="14" height="14" rx="3" fill="#aceebb"/><rect x="934" y="151" width="14" height="14" rx="3" fill="#aceebb"/><rect x="934" y="169" width="14" height="14" rx="3" fill="#aceebb"/><rect x="934" y="187" width="14" height="14" rx="3" fill="#aceebb"/><rect x="934" y="205" width="14" height="14" rx="3" fill="#4ac26b"/><rect x="952" y="97" width="14" height="14" rx="3" fill="#2da44e"/><rect x="952" y="115" width="14" height="14" rx="3" fill="#4ac26b"/><rect x="952" y="133" width="14" height="14" rx="3" fill="#aceebb"/><rect x="952" y="151" width="14" height="14" rx="3" fill="#4ac26b"/><rect x="952" y="169" width="14" height="14" rx="3" fill="#4ac26b"/><rect x="952" y="187" width="14" height="14" rx="3" fill="#2da44e"/><rect x="952" y="205" width="14" height="14" rx="3" fill="#116329"/><rect x="970" y="97" width="14" height="14" rx="3" fill="#2da44e"/><rect x="970" y="115" width="14" height="14" rx="3" fill="#2da44e"/><rect x="970" y="133" width="14" height="14" rx="3" fill="#2da44e"/><rect x="970" y="151" width="14" height="14" rx="3" fill="#aceebb"/><rect x="970" y="169" width="14" height="14" rx="3" fill="#116329"/><rect x="970" y="187" width="14" height="14" rx="3" fill="#116329"/><rect x="970" y="205" width="14" height="14" rx="3" fill="#4ac26b"/><rect x="988" y="97" width="14" height="14" rx="3" fill="#4ac26b"/><rect x="988" y="115" width="14" height="14" rx="3" fill="#aceebb"/><rect x="988" y="133" width="14" height="14" rx="3" fill="#2da44e"/><rect x="988" y="151" width="14" height="14" rx="3" fill="#aceebb"/><rect x="988" y="169" width="14" height="14" rx="3" fill="#aceebb"/><rect x="988" y="187" width="14" height="14" rx="3" fill="#4ac26b"/><rect x="988" y="205" width="14" height="14" rx="3" fill="#4ac26b"/><rect x="1006" y="97" width="14" height="14" rx="3" fill="#4ac26b"/><rect x="1006" y="115" width="14" height="14" rx="3" fill="#aceebb"/><rect x="1006" y="133" width="14" height="14" rx="3" fill="#aceebb"/><rect x="1006" y="151" width="14" height="14" rx="3" fill="#4ac26b"/><rect x="1006" y="169" width="14" height="14" rx="3" fill="#4ac26b"/><rect x="1006" y="187" width="14" height="14" rx="3" fill="#4ac26b"/><rect x="1006" y="205" width="14" height="14" rx="3" fill="#aceebb"/><rect x="1024" y="97" width="14" height="14" rx="3" fill="#116329"/><rect x="1024" y="115" width="14" height="14" rx="3" fill="#4ac26b"/><rect x="1024" y="133" width="14" height="14" rx="3" fill="#4ac26b"/><rect x="1024" y="151" width="14" height="14" rx="3" fill="#2da44e"/><rect x="1024" y="169" width="14" height="14" rx="3" fill="#2da44e"/><rect x="1024" y="187" width="14" height="14" rx="3" fill="#4ac26b"/><rect x="1024" y="205" width="14" height="14" rx="3" fill="#116329"/><rect x="1042" y="97" width="14" height="14" rx="3" fill="#2da44e"/><rect x="1042" y="115" width="14" height="14" rx="3" fill="#2da44e"/><rect x="1042" y="133" width="14" height="14" rx="3" fill="#4ac26b"/><rect x="1042" y="151" width="14" height="14" rx="3" fill="#4ac26b"/><rect x="1042" y="169" width="14" height="14" rx="3" fill="#2da44e"/><rect x="1042" y="187" width="14" height="14" rx="3" fill="#4ac26b"/><rect class="p" style="animation-delay:0.1s" x="1042" y="205" width="14" height="14" rx="3" fill="#116329"/><rect x="1060" y="97" width="14" height="14" rx="3" fill="#116329"/><rect x="1060" y="115" width="14" height="14" rx="3" fill="#4ac26b"/><rect class="p" style="animation-delay:1.6s" x="1060" y="133" width="14" height="14" rx="3" fill="#116329"/><rect x="1060" y="151" width="14" height="14" rx="3" fill="#116329"/><rect x="1060" y="169" width="14" height="14" rx="3" fill="#116329"/><rect x="1060" y="187" width="14" height="14" rx="3" fill="#2da44e"/><rect x="1060" y="205" width="14" height="14" rx="3" fill="#4ac26b"/><rect x="1078" y="97" width="14" height="14" rx="3" fill="#116329"/><rect x="1078" y="115" width="14" height="14" rx="3" fill="#116329"/><rect x="1078" y="133" width="14" height="14" rx="3" fill="#2da44e"/><rect x="1078" y="151" width="14" height="14" rx="3" fill="#116329"/><rect x="1078" y="169" width="14" height="14" rx="3" fill="#116329"/><rect x="1078" y="187" width="14" height="14" rx="3" fill="#116329"/><rect x="1078" y="205" width="14" height="14" rx="3" fill="#2da44e"/><rect x="1096" y="97" width="14" height="14" rx="3" fill="#116329"/><rect x="1096" y="115" width="14" height="14" rx="3" fill="#4ac26b"/><rect x="1096" y="133" width="14" height="14" rx="3" fill="#4ac26b"/><rect x="1096" y="151" width="14" height="14" rx="3" fill="#2da44e"/><rect x="1096" y="169" width="14" height="14" rx="3" fill="#2da44e"/><rect x="1096" y="187" width="14" height="14" rx="3" fill="#116329"/><rect x="1096" y="205" width="14" height="14" rx="3" fill="#2da44e"/><rect x="1114" y="97" width="14" height="14" rx="3" fill="#116329"/><rect x="1114" y="115" width="14" height="14" rx="3" fill="#116329"/><rect x="1114" y="133" width="14" height="14" rx="3" fill="#2da44e"/><rect x="1114" y="151" width="14" height="14" rx="3" fill="#2da44e"/><rect x="1114" y="169" width="14" height="14" rx="3" fill="#2da44e"/><rect x="1114" y="187" width="14" height="14" rx="3" fill="#2da44e"/><rect x="1114" y="205" width="14" height="14" rx="3" fill="#116329"/><rect x="1132" y="97" width="14" height="14" rx="3" fill="#116329"/><rect x="1132" y="115" width="14" height="14" rx="3" fill="#116329"/><rect x="1132" y="133" width="14" height="14" rx="3" fill="#4ac26b"/><rect x="1132" y="151" width="14" height="14" rx="3" fill="#116329"/><rect x="1132" y="169" width="14" height="14" rx="3" fill="#116329"/><rect class="p" style="animation-delay:2.4s" x="1132" y="187" width="14" height="14" rx="3" fill="#116329"/><rect x="1132" y="205" width="14" height="14" rx="3" fill="#2da44e"/><rect x="1150" y="97" width="14" height="14" rx="3" fill="#116329"/><rect x="1150" y="115" width="14" height="14" rx="3" fill="#116329"/><rect x="1150" y="133" width="14" height="14" rx="3" fill="#116329"/><rect x="1150" y="151" width="14" height="14" rx="3" fill="#2da44e"/><rect x="1150" y="169" width="14" height="14" rx="3" fill="#2da44e"/><rect x="1150" y="187" width="14" height="14" rx="3" fill="#2da44e"/><rect x="1150" y="205" width="14" height="14" rx="3" fill="#116329"/>
<rect x="1" y="1" width="1198" height="318" rx="13" fill="url(#f)"/>
<text x="64" y="84" class="m" font-size="16" fill="#818b98">~ <tspan fill="#1a7f37">❯</tspan> <tspan fill="#1f2328">whoami</tspan><tspan class="c" fill="#1a7f37"> ▍</tspan></text>
<text x="62" y="152" class="s" font-size="56" font-weight="700" letter-spacing="-1.4" fill="#1f2328">Refik Can Bozkurt</text>
<text x="64" y="194" class="s" font-size="21" fill="#59636e">I build backend systems that stay up — from factory floors to the web.</text>
<rect x="64" y="232" width="181" height="30" rx="15" fill="none" stroke="#d1d9e0"/><circle cx="81" cy="247" r="4" fill="#1a7f37"/><text x="93" y="252" class="m" font-size="14" fill="#1f2328">Backend Engineer</text><rect x="255" y="232" width="81" height="30" rx="15" fill="none" stroke="#d1d9e0"/><text x="270" y="252" class="m" font-size="14" fill="#1f2328">Google</text><rect x="346" y="232" width="81" height="30" rx="15" fill="none" stroke="#d1d9e0"/><text x="361" y="252" class="m" font-size="14" fill="#1f2328">Berlin</text><rect x="437" y="232" width="81" height="30" rx="15" fill="none" stroke="#d1d9e0"/><text x="452" y="252" class="m" font-size="14" fill="#1f2328">4+ yrs</text>
</svg>